<?xml version="1.0" encoding="utf-8"?>
<!-- Generator: Adobe Illustrator 19.1.1, SVG Export Plug-In . SVG Version: 6.00 Build 0)  -->
<svg version="1.1" id="Layer_1" xmlns="http://www.w3.org/2000/svg" xmlns:xlink="http://www.w3.org/1999/xlink" x="0px" y="0px"
	 viewBox="0 0 120 120" style="enable-background:new 0 0 120 120;" xml:space="preserve">
<style type="text/css">
	.st0{fill-rule:evenodd;clip-rule:evenodd;fill:#FFFFFF;}
	.st1{fill-rule:evenodd;clip-rule:evenodd;fill:#19578B;}
</style>
<g>
	<polygon class="st0" points="62.1,61.8 104,73.1 94.3,82.2 101.7,90.5 90.5,102.2 82.5,94.6 71.3,103.4 	"/>
	<path class="st1" d="M117.6,79.2l1.9-7.2l-11.9-3.2L96.8,28.1l8.5-8.5l-5.2-5.2L91.4,23L51,12.2L47.8,0.4l-7.1,1.9l3.2,11.9
		L14.2,43.9L2.4,40.7l-1.9,7.1L12.4,51l10.8,40.4l-8.8,8.7l5.2,5.2l8.7-8.7l40.2,10.9l3.3,12.1l7.4-2.1l-3.2-11.9l6.5-6.4l8.2,8.3
		L107.2,91l-8.1-8.2l6.8-6.8L117.6,79.2z M85.4,29.1l-7,7l-22.6-6.2l-2.5-9.4L85.4,29.1z M57.7,67.3l3.9,14.4l-14.4-3.9L57.7,67.3z
		 M42.2,72.4l-3.9-14.5l14.5,4L42.2,72.4z M58,38.1L72.5,42L61.9,52.7L58,38.1z M77.8,47.1l3.9,14.8l-14.7-4L77.8,47.1z M54.8,54.6
		L40,50.7L50.8,40L54.8,54.6z M46.2,22.4l2.4,9.5L31.9,48.6L22.4,46L46.2,22.4z M20.6,53.2l9.4,2.6l6.1,22.6l-7,7L20.6,53.2z
		 M34.3,90.7l7-7l22.5,6.1l2.6,9.4L34.3,90.7z M98,74.1L89,83l8.1,8.1L97,91.2l0.1,0.1L91,97.4l-8.2-8.2l-8.9,9l-8.8-32.8v-0.2
		L98,74l-0.2,0.2H98z M89.9,64.1l-6.2-23l7.1-7l8.6,32.5L89.9,64.1z"/>
</g>
</svg>
