<?xml version="1.0" encoding="UTF-8"?>
<svg xmlns="http://www.w3.org/2000/svg" xmlns:xlink="http://www.w3.org/1999/xlink" width="120px" height="120px" viewBox="0 0 120 120" version="1.1">
<g id="surface1">
<path style=" stroke:none;fill-rule:nonzero;fill:#00bff3;fill-opacity:1;" d="M 1.726562 19.882812 C 1.824219 20.152344 3.441406 24.539062 5.3125 29.644531 C 7.183594 34.75 11.820312 47.363281 15.609375 57.675781 C 19.398438 67.984375 24.546875 82.015625 27.050781 88.835938 L 31.609375 101.257812 L 40.394531 101.257812 C 48.695312 101.257812 49.1875 101.25 49.242188 101.117188 C 49.320312 100.933594 56.867188 80.496094 58.535156 75.960938 C 59.300781 73.882812 59.953125 72.167969 59.976562 72.136719 C 60.007812 72.105469 61.410156 75.777344 63.09375 80.296875 C 66.3125 88.921875 70.789062 100.894531 70.878906 101.117188 C 70.933594 101.25 71.425781 101.257812 79.695312 101.257812 C 87.96875 101.257812 88.460938 101.25 88.515625 101.125 C 88.535156 101.050781 91.523438 92.933594 95.152344 83.085938 C 98.769531 73.238281 103.207031 61.179688 105.007812 56.289062 C 106.808594 51.398438 110.558594 41.1875 113.347656 33.613281 C 116.132812 26.027344 118.453125 19.734375 118.5 19.613281 L 118.582031 19.40625 L 95.597656 19.40625 L 94.890625 21.816406 C 94.503906 23.132812 92.765625 29.03125 91.023438 34.921875 C 86.925781 48.820312 83.347656 60.953125 80.960938 69.0625 L 79.042969 75.5625 L 78.558594 74.066406 C 78.289062 73.246094 77.046875 69.402344 75.792969 65.527344 L 73.515625 58.484375 L 73.984375 57.058594 C 74.238281 56.273438 76.046875 50.699219 78.003906 44.660156 C 79.957031 38.625 82.59375 30.492188 83.863281 26.589844 C 85.125 22.683594 86.164062 19.472656 86.164062 19.441406 C 86.164062 19.417969 81.816406 19.414062 76.484375 19.417969 L 66.816406 19.441406 L 65.597656 23.949219 C 64.929688 26.425781 63.402344 32.078125 62.203125 36.523438 C 61.007812 40.957031 60.007812 44.5625 59.984375 44.53125 C 59.9375 44.476562 59.390625 42.4375 57.667969 35.882812 C 57.457031 35.097656 56.394531 31.078125 55.304688 26.949219 L 53.308594 19.441406 L 43.636719 19.417969 C 37.800781 19.414062 33.957031 19.433594 33.957031 19.472656 C 33.957031 19.511719 34.234375 20.40625 34.566406 21.460938 C 34.90625 22.507812 35.929688 25.726562 36.84375 28.605469 C 37.761719 31.484375 38.886719 35.019531 39.347656 36.460938 C 39.808594 37.902344 40.804688 41.035156 41.574219 43.429688 C 43.445312 49.320312 44.175781 51.605469 45.363281 55.332031 L 46.371094 58.5 L 45.625 60.917969 C 45.207031 62.25 44.359375 64.996094 43.730469 67.03125 C 43.097656 69.0625 42.242188 71.8125 41.835938 73.128906 C 41.425781 74.453125 41.082031 75.53125 41.074219 75.515625 C 41.066406 75.507812 40.550781 73.785156 39.925781 71.6875 C 39.308594 69.59375 38.609375 67.253906 38.386719 66.492188 C 38.015625 65.265625 35.890625 58.113281 29.875 37.847656 C 26.78125 27.421875 26.050781 24.964844 25.296875 22.40625 C 24.886719 21.027344 24.523438 19.789062 24.480469 19.652344 L 24.394531 19.40625 L 1.546875 19.40625 Z M 1.726562 19.882812 "/>
</g>
</svg>
